<svg xmlns="http://www.w3.org/2000/svg" viewBox="0 0 900 360">
  <rect width="900" height="360" fill="#f5f5f5"/>
  <g transform="translate(40 40)">
    <rect width="360" height="220" rx="16" fill="#dce8d5"/>
    <path d="M120 0 L240 0 L280 220 L80 220 Z" fill="#707578"/>
    <path d="M194 210 C160 170,160 110,220 74" fill="none" stroke="#111" stroke-width="8"/>
    <polygon points="214,65 234,70 220,86" fill="#111"/>
    <rect x="175" y="150" width="68" height="34" rx="10" fill="#4e8ee7"/>
    <rect x="214" y="98" width="54" height="28" rx="10" fill="#d45a54"/>
    <text x="170" y="252" font-size="24" font-family="Arial">A</text>
  </g>
  <g transform="translate(500 40)">
    <rect width="360" height="220" rx="16" fill="#dce8d5"/>
    <path d="M120 0 L240 0 L280 220 L80 220 Z" fill="#707578"/>
    <path d="M196 210 C156 176,170 114,218 88" fill="none" stroke="#111" stroke-width="8"/>
    <polygon points="212,79 232,84 219,100" fill="#111"/>
    <rect x="178" y="152" width="66" height="34" rx="10" fill="#efe0b0"/>
    <rect x="154" y="102" width="60" height="30" rx="10" fill="#67c0d7"/>
    <text x="168" y="252" font-size="24" font-family="Arial">Б</text>
  </g>
</svg>
