<svg xmlns="http://www.w3.org/2000/svg" viewBox="0 0 800 360">
  <rect width="800" height="360" fill="#f5f5f5"/>
  <rect x="70" y="90" width="660" height="180" rx="18" fill="#dce8d5"/>
  <path d="M120 250 L640 250 L590 110 L170 110 Z" fill="#72777a"/>
  <rect x="320" y="118" width="180" height="100" rx="10" fill="#ececec"/>
  <rect x="500" y="148" width="72" height="54" rx="10" fill="#67c0d7"/>
  <circle cx="360" cy="236" r="16" fill="#222"/>
  <circle cx="520" cy="236" r="16" fill="#222"/>
  <circle cx="560" cy="236" r="16" fill="#222"/>
  <g fill="#b98543">
    <rect x="248" y="232" width="32" height="32"/>
    <rect x="286" y="224" width="42" height="40"/>
    <rect x="392" y="206" width="38" height="46"/>
  </g>
  <g stroke="#111" stroke-width="7">
    <line x1="276" y1="180" x2="320" y2="170"/>
    <line x1="436" y1="180" x2="454" y2="208"/>
  </g>
  <circle cx="264" cy="172" r="12" fill="#ef8a3e"/>
  <circle cx="430" cy="170" r="12" fill="#111"/>
</svg>
