<svg xmlns="http://www.w3.org/2000/svg" viewBox="0 0 800 420">
  <rect width="800" height="420" fill="#f4f4f4"/>
  <rect x="90" y="110" width="620" height="180" rx="14" fill="#777c7f"/>
  <g stroke="#fff" stroke-width="10">
    <line x1="160" y1="200" x2="420" y2="200"/>
    <line x1="460" y1="200" x2="640" y2="200"/>
  </g>
  <g fill="#fff">
    <rect x="280" y="150" width="180" height="90"/>
    <rect x="610" y="164" width="100" height="70"/>
  </g>
  <g fill="#d9b35f">
    <rect x="130" y="150" width="120" height="60" rx="18"/>
  </g>
  <circle cx="155" cy="214" r="18" fill="#222"/>
  <circle cx="225" cy="214" r="18" fill="#222"/>
  <g transform="translate(345 112)">
    <circle cx="0" cy="70" r="18" fill="#111"/>
    <rect x="-9" y="88" width="18" height="60" fill="#111"/>
    <line x1="-30" y1="110" x2="30" y2="110" stroke="#111" stroke-width="8"/>
    <line x1="-26" y1="170" x2="0" y2="146" stroke="#111" stroke-width="8"/>
    <line x1="26" y1="170" x2="0" y2="146" stroke="#111" stroke-width="8"/>
  </g>
  <g transform="translate(640 106)">
    <circle cx="0" cy="48" r="16" fill="#ef8a3e"/>
    <rect x="-8" y="64" width="16" height="54" fill="#ef8a3e"/>
    <line x1="-22" y1="86" x2="22" y2="86" stroke="#ef8a3e" stroke-width="7"/>
    <line x1="-8" y1="118" x2="-20" y2="168" stroke="#ef8a3e" stroke-width="7"/>
    <line x1="8" y1="118" x2="20" y2="168" stroke="#ef8a3e" stroke-width="7"/>
  </g>
  <g fill="#111" font-family="Arial" font-size="24" font-weight="700">
    <text x="372" y="178">А</text>
    <text x="177" y="145">Б</text>
    <text x="626" y="143">В</text>
  </g>
</svg>
